<svg width="379" height="57" viewBox="0 0 379 57" fill="none" xmlns="http://www.w3.org/2000/svg"> 
<path d="M27.87 40.85C27.87 42.95 27.4967 44.6067 26.75 45.82C26.0033 46.9867 24.9067 48.0833 23.46 49.11C23.0867 49.3433 22.5733 49.6233 21.92 49.95C21.2667 50.2767 20.5433 50.58 19.75 50.86C18.9567 51.14 18.1167 51.3733 17.23 51.56C16.3433 51.7467 15.5267 51.84 14.78 51.84C12.68 51.84 11.0933 51.6067 10.02 51.14C8.94667 50.72 8.41 50.2067 8.41 49.6C8.41 48.9467 8.59667 48.41 8.97 47.99C9.34333 47.57 9.67 47.3367 9.95 47.29L10.72 47.85C10.9533 48.0833 11.28 48.34 11.7 48.62C12.12 48.8533 12.7967 48.97 13.73 48.97C14.6167 48.97 15.69 48.83 16.95 48.55C18.21 48.2233 19.4 47.7567 20.52 47.15C21.6867 46.4967 22.6667 45.7033 23.46 44.77C24.3 43.8367 24.72 42.7633 24.72 41.55C24.72 40.4767 23.9033 39.4967 22.27 38.61C20.6833 37.6767 18.1633 37.0467 14.71 36.72C12.9367 36.58 11.1867 36.37 9.46 36.09C7.73333 35.7633 6.17 35.3433 4.77 34.83C3.41667 34.27 2.32 33.5933 1.48 32.8C0.64 31.96 0.22 30.9333 0.22 29.72C0.22 28.5533 0.546667 27.4333 1.2 26.36C1.85333 25.2867 2.64667 24.3067 3.58 23.42C4.56 22.4867 5.56333 21.67 6.59 20.97C7.61667 20.27 8.48 19.6867 9.18 19.22C9.74 18.8933 10.51 18.4733 11.49 17.96C12.5167 17.4 13.59 16.8867 14.71 16.42C15.8767 15.9067 17.02 15.4867 18.14 15.16C19.3067 14.7867 20.2867 14.6 21.08 14.6C22.0133 14.6 22.6433 14.8567 22.97 15.37C23.2967 15.8833 23.46 16.6067 23.46 17.54C23.46 18.3333 23.3667 19.1733 23.18 20.06C22.9933 20.9467 22.7833 21.81 22.55 22.65C22.3167 23.49 22.0833 24.2367 21.85 24.89C21.6633 25.4967 21.5233 25.8933 21.43 26.08C21.2433 26.5 21.0333 26.78 20.8 26.92C20.5667 27.06 20.4033 27.13 20.31 27.13C20.1233 27.13 20.03 27.0133 20.03 26.78C20.03 26.64 20.0533 26.3833 20.1 26.01C20.1933 25.59 20.2867 25.1 20.38 24.54C20.52 23.98 20.6133 23.3733 20.66 22.72C20.7533 22.0667 20.8 21.4133 20.8 20.76C20.8 19.7333 20.7533 18.9867 20.66 18.52C20.5667 18.0533 20.1933 17.82 19.54 17.82C18.8867 17.82 18 18.0067 16.88 18.38C15.76 18.7067 14.6167 19.1267 13.45 19.64C12.19 20.2 10.9533 20.9233 9.74 21.81C8.57333 22.6967 7.52333 23.6067 6.59 24.54C5.65667 25.4733 4.88667 26.3833 4.28 27.27C3.72 28.11 3.44 28.7867 3.44 29.3C3.44 29.86 3.81333 30.3967 4.56 30.91C5.35333 31.3767 6.33333 31.7967 7.5 32.17C8.71333 32.5433 10.0433 32.87 11.49 33.15C12.9367 33.43 14.36 33.64 15.76 33.78C16.9267 33.92 18.21 34.1067 19.61 34.34C21.01 34.5733 22.3167 34.9467 23.53 35.46C24.7433 35.9733 25.77 36.6733 26.61 37.56C27.45 38.4 27.87 39.4967 27.87 40.85ZM54.7538 39.38C54.7538 39.8 54.4738 40.2433 53.9138 40.71C53.3538 41.1767 52.7005 41.62 51.9538 42.04C51.2072 42.4133 50.4372 42.74 49.6438 43.02C48.8972 43.3 48.3372 43.44 47.9638 43.44C47.5438 43.44 47.0772 43.3233 46.5638 43.09C46.0972 42.8567 45.6305 42.5767 45.1638 42.25C44.7438 41.9233 44.3705 41.62 44.0438 41.34C43.7172 41.06 43.5072 40.8733 43.4138 40.78C43.2738 40.92 43.0638 41.2 42.7838 41.62C42.5038 42.04 42.1538 42.5067 41.7338 43.02C41.3605 43.4867 40.9405 43.9067 40.4738 44.28C40.0538 44.6533 39.6105 44.84 39.1438 44.84C37.9305 44.84 36.8805 44.1867 35.9938 42.88C35.1072 41.5733 34.3605 40.08 33.7538 38.4C33.1938 36.72 32.7505 35.11 32.4238 33.57C32.1438 31.9833 32.0038 30.91 32.0038 30.35C32.0038 30.0233 32.1672 29.7667 32.4938 29.58C32.8672 29.3467 33.1472 29.23 33.3338 29.23C33.9872 29.23 34.4305 29.4633 34.6638 29.93C34.8972 30.35 35.0138 30.8167 35.0138 31.33C35.0138 31.75 35.1305 32.4967 35.3638 33.57C35.6438 34.6433 35.9705 35.74 36.3438 36.86C36.7172 37.98 37.1138 38.9833 37.5338 39.87C37.9538 40.71 38.3272 41.13 38.6538 41.13C39.2605 41.13 39.7738 40.7567 40.1938 40.01C40.6605 39.2167 41.0338 38.33 41.3138 37.35C41.5938 36.3233 41.8038 35.3667 41.9438 34.48C42.0838 33.5467 42.1538 32.94 42.1538 32.66C42.1538 32.6133 42.1538 32.4733 42.1538 32.24C42.2005 31.96 42.2472 31.68 42.2938 31.4C42.3405 31.12 42.3638 30.8633 42.3638 30.63C42.4105 30.3967 42.4338 30.2333 42.4338 30.14C42.4338 29.8133 42.3638 29.6033 42.2238 29.51C42.0838 29.37 42.0138 29.1133 42.0138 28.74C42.0138 28.46 42.1538 28.2033 42.4338 27.97C42.7138 27.69 43.3205 27.55 44.2538 27.55C44.6272 27.55 44.9072 27.6667 45.0938 27.9C45.3272 28.0867 45.4905 28.32 45.5838 28.6C45.6772 28.88 45.7238 29.16 45.7238 29.44C45.7705 29.6733 45.7938 29.8367 45.7938 29.93C45.7938 29.9767 45.7705 30.3033 45.7238 30.91C45.6772 31.5167 45.6305 32.1933 45.5838 32.94C45.5838 33.64 45.5605 34.3167 45.5138 34.97C45.4672 35.6233 45.4438 36.02 45.4438 36.16C45.4438 36.3 45.5138 36.58 45.6538 37C45.7938 37.42 45.9572 37.8633 46.1438 38.33C46.3772 38.75 46.6338 39.1467 46.9138 39.52C47.1938 39.8467 47.4972 40.01 47.8238 40.01C48.3838 40.01 48.8972 39.94 49.3638 39.8C49.8772 39.6133 50.3438 39.4267 50.7638 39.24C51.2305 39.0067 51.6505 38.82 52.0238 38.68C52.3972 38.4933 52.7472 38.4 53.0738 38.4C53.4938 38.4 53.8672 38.4933 54.1938 38.68C54.5672 38.8667 54.7538 39.1 54.7538 39.38ZM73.3137 41.76C73.3137 42.5533 73.0337 43.2533 72.4737 43.86C71.9603 44.42 71.2837 44.91 70.4437 45.33C69.6503 45.7033 68.7637 46.0067 67.7837 46.24C66.8037 46.4733 65.8703 46.66 64.9837 46.8C64.097 46.8933 63.3037 46.9633 62.6037 47.01C61.9503 47.01 61.5303 47.01 61.3437 47.01C60.317 47.01 59.5237 46.8467 58.9637 46.52C58.4037 46.1933 58.1237 45.61 58.1237 44.77C58.1237 44.49 58.147 44.2567 58.1937 44.07C58.2403 43.8367 58.427 43.72 58.7537 43.72C58.8937 43.72 59.127 43.7667 59.4537 43.86C59.7803 43.9067 60.037 43.93 60.2237 43.93C60.4103 43.93 60.9937 43.9067 61.9737 43.86C63.0003 43.7667 64.0737 43.6267 65.1937 43.44C66.3603 43.2533 67.387 42.9967 68.2737 42.67C69.207 42.2967 69.6737 41.83 69.6737 41.27C69.6737 41.1767 69.1837 40.8967 68.2037 40.43C67.2703 39.9167 65.847 39.0767 63.9337 37.91C62.4403 36.9767 61.3903 36.0433 60.7837 35.11C60.177 34.13 59.8737 32.8233 59.8737 31.19C59.8737 30.1633 60.0837 29.3233 60.5037 28.67C60.9703 28.0167 61.577 27.5033 62.3237 27.13C63.117 26.7567 64.0037 26.5 64.9837 26.36C66.0103 26.1733 67.0837 26.08 68.2037 26.08C68.297 26.08 68.577 26.1267 69.0437 26.22C69.557 26.3133 70.0937 26.4767 70.6537 26.71C71.2137 26.8967 71.7037 27.1533 72.1237 27.48C72.5903 27.76 72.8237 28.0867 72.8237 28.46C72.8237 28.5533 72.7303 28.6933 72.5437 28.88C72.4037 29.0667 72.147 29.4167 71.7737 29.93C71.6337 29.8833 71.377 29.8133 71.0037 29.72C70.677 29.6267 70.2803 29.5333 69.8137 29.44C69.3937 29.3 68.9503 29.2067 68.4837 29.16C68.017 29.0667 67.6437 29.02 67.3637 29.02C66.1503 29.02 65.1703 29.2533 64.4237 29.72C63.677 30.14 63.3037 30.98 63.3037 32.24C63.3037 32.8467 63.537 33.4067 64.0037 33.92C64.517 34.4333 65.147 34.9233 65.8937 35.39C66.6403 35.81 67.4337 36.2533 68.2737 36.72C69.1603 37.14 69.977 37.6067 70.7237 38.12C71.4703 38.6333 72.077 39.1933 72.5437 39.8C73.057 40.36 73.3137 41.0133 73.3137 41.76ZM97.852 19.36C97.2453 20.06 96.382 20.76 95.262 21.46C94.142 22.1133 93.022 22.72 91.902 23.28C90.782 23.84 89.802 24.33 88.962 24.75C88.122 25.1233 87.702 25.38 87.702 25.52C87.702 25.66 87.7953 26.08 87.982 26.78C88.1686 27.48 88.3786 28.32 88.612 29.3C88.892 30.2333 89.172 31.2133 89.452 32.24C89.732 33.2667 89.9653 34.1767 90.152 34.97C90.2453 35.4367 90.362 36.0433 90.502 36.79C90.642 37.5367 90.7586 38.2833 90.852 39.03C90.992 39.7767 91.1086 40.4533 91.202 41.06C91.2953 41.62 91.342 41.9233 91.342 41.97C91.342 42.67 91.2253 43.3933 90.992 44.14C90.7586 44.8867 90.3853 45.26 89.872 45.26C89.592 45.26 89.3353 45.1433 89.102 44.91C88.8686 44.6767 88.6586 44.42 88.472 44.14C88.2853 43.8133 88.1453 43.51 88.052 43.23C87.9586 42.95 87.912 42.74 87.912 42.6C87.912 42.5067 87.912 42.3667 87.912 42.18C87.9586 41.9933 87.982 41.7833 87.982 41.55C87.982 40.6633 87.842 39.38 87.562 37.7C87.4686 37.1867 87.282 36.3933 87.002 35.32C86.722 34.2467 86.442 33.15 86.162 32.03C85.8353 30.7233 85.462 29.3 85.042 27.76C84.8553 27.1067 84.7386 26.78 84.692 26.78C84.3653 26.78 83.8053 26.99 83.012 27.41C82.2653 27.7833 81.402 28.2733 80.422 28.88C79.442 29.44 78.4153 30.07 77.342 30.77C76.2686 31.4233 75.2653 32.0533 74.332 32.66C73.3986 33.22 72.6053 33.71 71.952 34.13C71.252 34.5033 70.832 34.69 70.692 34.69C70.0853 34.69 69.5953 34.48 69.222 34.06C68.8486 33.64 68.662 33.1733 68.662 32.66C68.662 32.38 69.0586 31.9833 69.852 31.47C70.5986 30.91 71.5553 30.3033 72.722 29.65C73.842 28.9967 75.0786 28.32 76.432 27.62C77.7386 26.92 78.952 26.29 80.072 25.73C81.2386 25.17 82.1953 24.7033 82.942 24.33C83.7353 23.9567 84.132 23.77 84.132 23.77C83.712 21.6233 83.362 19.71 83.082 18.03C82.8486 16.5833 82.6153 15.2533 82.382 14.04C82.1953 12.8267 82.102 12.1733 82.102 12.08C82.102 11.4733 82.2186 11.03 82.452 10.75C82.732 10.4233 83.0353 10.26 83.362 10.26C83.8753 10.26 84.202 10.61 84.342 11.31C84.8553 13.83 85.322 16.07 85.742 18.03C86.2086 19.99 86.652 21.5767 87.072 22.79C87.492 22.6967 88.2153 22.44 89.242 22.02C90.2686 21.5533 91.342 21.0633 92.462 20.55C93.582 20.0367 94.5853 19.5933 95.472 19.22C96.4053 18.8 96.942 18.59 97.082 18.59C97.362 18.59 97.5253 18.6833 97.572 18.87C97.6653 19.0567 97.7586 19.22 97.852 19.36ZM134.905 36.44C134.905 37.28 134.509 38.33 133.715 39.59C132.969 40.8033 131.942 41.9933 130.635 43.16C129.329 44.3267 127.812 45.33 126.085 46.17C124.359 46.9633 122.562 47.36 120.695 47.36C119.855 47.36 118.969 47.22 118.035 46.94C117.102 46.66 116.192 46.2633 115.305 45.75C114.419 45.19 113.625 44.5367 112.925 43.79C112.225 42.9967 111.712 42.11 111.385 41.13C111.105 41.41 110.755 41.8767 110.335 42.53C109.962 43.1833 109.542 43.86 109.075 44.56C108.609 45.2133 108.095 45.7967 107.535 46.31C106.975 46.7767 106.392 47.01 105.785 47.01C105.179 47.01 104.665 46.7067 104.245 46.1C103.872 45.4467 103.569 44.7467 103.335 44C103.102 43.2067 102.939 42.46 102.845 41.76C102.752 41.06 102.705 40.6633 102.705 40.57C102.705 40.01 102.869 38.96 103.195 37.42C103.522 35.8333 104.012 34.2 104.665 32.52C105.319 30.84 106.135 29.3467 107.115 28.04C108.142 26.7333 109.332 26.08 110.685 26.08C111.199 26.08 111.525 26.3133 111.665 26.78C111.852 27.2 111.945 27.62 111.945 28.04V30.14C112.179 30.3267 112.412 30.4667 112.645 30.56C112.925 30.6067 113.159 30.7 113.345 30.84C113.579 30.9333 113.742 31.0967 113.835 31.33C113.975 31.5633 114.045 31.9367 114.045 32.45C114.045 32.7767 114.022 33.08 113.975 33.36C113.929 33.5933 113.905 33.8267 113.905 34.06C113.905 35.2733 113.999 36.4633 114.185 37.63C114.372 38.7967 114.745 39.8467 115.305 40.78C115.865 41.6667 116.635 42.4133 117.615 43.02C118.595 43.58 119.902 43.86 121.535 43.86C123.589 43.86 125.315 43.44 126.715 42.6C128.162 41.7133 129.352 40.7567 130.285 39.73C131.265 38.6567 132.035 37.7 132.595 36.86C133.155 35.9733 133.622 35.53 133.995 35.53C134.602 35.53 134.905 35.8333 134.905 36.44ZM110.335 33.36C110.335 33.1733 110.289 33.01 110.195 32.87C110.102 32.6833 110.055 32.52 110.055 32.38C110.055 32.1933 110.102 32.03 110.195 31.89C110.289 31.75 110.335 31.5633 110.335 31.33C110.335 31.19 110.289 31.0967 110.195 31.05C110.102 30.9567 110.055 30.8633 110.055 30.77C109.635 30.8633 109.192 31.26 108.725 31.96C108.305 32.66 107.885 33.4767 107.465 34.41C107.092 35.3433 106.789 36.3 106.555 37.28C106.322 38.2133 106.205 38.9833 106.205 39.59C106.205 39.9167 106.299 40.4533 106.485 41.2C106.672 41.9467 106.882 42.4367 107.115 42.67C107.909 41.0367 108.632 39.45 109.285 37.91C109.985 36.37 110.335 34.8533 110.335 33.36ZM139.897 18.8C139.897 18.8933 139.733 19.08 139.407 19.36C139.08 19.64 138.683 19.9433 138.217 20.27C137.797 20.55 137.353 20.8067 136.887 21.04C136.42 21.2733 136.047 21.39 135.767 21.39C135.58 21.39 135.323 21.39 134.997 21.39C134.717 21.3433 134.413 21.25 134.087 21.11C133.807 20.97 133.55 20.7833 133.317 20.55C133.083 20.27 132.967 19.92 132.967 19.5C132.967 18.8467 133.2 18.24 133.667 17.68C134.133 17.0733 134.74 16.77 135.487 16.77C135.627 16.77 135.93 16.84 136.397 16.98C136.91 17.0733 137.423 17.2133 137.937 17.4C138.45 17.5867 138.893 17.7967 139.267 18.03C139.687 18.2633 139.897 18.52 139.897 18.8ZM142.207 44.98C142.207 45.3067 141.95 45.5867 141.437 45.82C140.97 46.0533 140.62 46.17 140.387 46.17C139.92 46.17 139.5 45.8667 139.127 45.26C138.753 44.6533 138.427 43.9533 138.147 43.16C137.867 42.3667 137.633 41.62 137.447 40.92C137.26 40.1733 137.12 39.66 137.027 39.38C136.887 38.9133 136.7 38.3533 136.467 37.7C136.233 37.0467 136 36.4167 135.767 35.81C135.58 35.2033 135.417 34.6667 135.277 34.2C135.137 33.7333 135.067 33.4767 135.067 33.43C135.067 32.7767 135.183 32.17 135.417 31.61C135.697 31.05 136.023 30.77 136.397 30.77C136.817 30.77 137.26 31.0967 137.727 31.75C138.193 32.4033 138.637 33.2433 139.057 34.27C139.523 35.25 139.943 36.3467 140.317 37.56C140.69 38.7267 141.017 39.8467 141.297 40.92C141.577 41.9467 141.787 42.8567 141.927 43.65C142.113 44.3967 142.207 44.84 142.207 44.98ZM167.636 42.39C167.636 42.67 167.543 42.95 167.356 43.23C167.169 43.51 166.936 43.7667 166.656 44C166.423 44.2333 166.143 44.4433 165.816 44.63C165.536 44.77 165.279 44.84 165.046 44.84C164.253 44.84 163.226 44.6767 161.966 44.35C160.753 43.9767 159.773 43.4167 159.026 42.67C158.233 41.8767 157.533 40.9433 156.926 39.87C156.319 38.75 155.643 37.1167 154.896 34.97C154.383 37.0233 153.776 39.0533 153.076 41.06C152.423 43.0667 151.349 44.91 149.856 46.59C149.763 46.6833 149.623 46.73 149.436 46.73C149.109 46.73 148.759 46.5667 148.386 46.24C148.013 45.9133 147.826 45.5867 147.826 45.26C147.826 44.9333 147.779 44.1867 147.686 43.02C147.639 41.8067 147.569 40.4767 147.476 39.03C147.383 37.5367 147.289 36.0433 147.196 34.55C147.149 33.01 147.126 31.75 147.126 30.77C147.126 30.3033 147.149 29.6967 147.196 28.95C147.243 28.1567 147.383 27.48 147.616 26.92C147.663 26.8267 147.826 26.64 148.106 26.36C148.433 26.08 148.783 25.94 149.156 25.94C149.483 25.94 149.669 26.15 149.716 26.57C149.763 26.99 149.786 27.4567 149.786 27.97V39.03C149.786 39.2633 149.809 39.59 149.856 40.01C149.949 40.43 150.066 40.7333 150.206 40.92C150.719 39.8 151.186 38.4933 151.606 37C152.073 35.46 152.516 34.0133 152.936 32.66C153.356 31.26 153.776 30.0933 154.196 29.16C154.616 28.18 155.036 27.69 155.456 27.69C155.923 27.69 156.296 27.7833 156.576 27.97C156.856 28.1567 157.089 28.53 157.276 29.09C157.509 30.4433 157.696 31.6567 157.836 32.73C157.976 33.7567 158.139 34.69 158.326 35.53C158.559 36.37 158.863 37.1633 159.236 37.91C159.656 38.61 160.216 39.2633 160.916 39.87C161.569 40.4767 162.293 40.92 163.086 41.2C163.926 41.48 164.649 41.62 165.256 41.62C165.536 41.62 165.839 41.5733 166.166 41.48C166.493 41.34 166.726 41.27 166.866 41.27C167.053 41.27 167.216 41.4333 167.356 41.76C167.543 42.0867 167.636 42.2967 167.636 42.39ZM204.495 36.44C204.495 37.28 204.099 38.33 203.305 39.59C202.559 40.8033 201.532 41.9933 200.225 43.16C198.919 44.3267 197.402 45.33 195.675 46.17C193.949 46.9633 192.152 47.36 190.285 47.36C189.445 47.36 188.559 47.22 187.625 46.94C186.692 46.66 185.782 46.2633 184.895 45.75C184.009 45.19 183.215 44.5367 182.515 43.79C181.815 42.9967 181.302 42.11 180.975 41.13C180.695 41.41 180.345 41.8767 179.925 42.53C179.552 43.1833 179.132 43.86 178.665 44.56C178.199 45.2133 177.685 45.7967 177.125 46.31C176.565 46.7767 175.982 47.01 175.375 47.01C174.769 47.01 174.255 46.7067 173.835 46.1C173.462 45.4467 173.159 44.7467 172.925 44C172.692 43.2067 172.529 42.46 172.435 41.76C172.342 41.06 172.295 40.6633 172.295 40.57C172.295 40.01 172.459 38.96 172.785 37.42C173.112 35.8333 173.602 34.2 174.255 32.52C174.909 30.84 175.725 29.3467 176.705 28.04C177.732 26.7333 178.922 26.08 180.275 26.08C180.789 26.08 181.115 26.3133 181.255 26.78C181.442 27.2 181.535 27.62 181.535 28.04V30.14C181.769 30.3267 182.002 30.4667 182.235 30.56C182.515 30.6067 182.749 30.7 182.935 30.84C183.169 30.9333 183.332 31.0967 183.425 31.33C183.565 31.5633 183.635 31.9367 183.635 32.45C183.635 32.7767 183.612 33.08 183.565 33.36C183.519 33.5933 183.495 33.8267 183.495 34.06C183.495 35.2733 183.589 36.4633 183.775 37.63C183.962 38.7967 184.335 39.8467 184.895 40.78C185.455 41.6667 186.225 42.4133 187.205 43.02C188.185 43.58 189.492 43.86 191.125 43.86C193.179 43.86 194.905 43.44 196.305 42.6C197.752 41.7133 198.942 40.7567 199.875 39.73C200.855 38.6567 201.625 37.7 202.185 36.86C202.745 35.9733 203.212 35.53 203.585 35.53C204.192 35.53 204.495 35.8333 204.495 36.44ZM179.925 33.36C179.925 33.1733 179.879 33.01 179.785 32.87C179.692 32.6833 179.645 32.52 179.645 32.38C179.645 32.1933 179.692 32.03 179.785 31.89C179.879 31.75 179.925 31.5633 179.925 31.33C179.925 31.19 179.879 31.0967 179.785 31.05C179.692 30.9567 179.645 30.8633 179.645 30.77C179.225 30.8633 178.782 31.26 178.315 31.96C177.895 32.66 177.475 33.4767 177.055 34.41C176.682 35.3433 176.379 36.3 176.145 37.28C175.912 38.2133 175.795 38.9833 175.795 39.59C175.795 39.9167 175.889 40.4533 176.075 41.2C176.262 41.9467 176.472 42.4367 176.705 42.67C177.499 41.0367 178.222 39.45 178.875 37.91C179.575 36.37 179.925 34.8533 179.925 33.36ZM222.017 37.07C222.017 39.17 221.76 41.0133 221.247 42.6C220.78 44.1867 220.197 45.5167 219.497 46.59C218.797 47.6167 218.073 48.3867 217.327 48.9C216.627 49.4133 216.043 49.67 215.577 49.67C214.923 49.67 214.293 49.39 213.687 48.83C213.08 48.2233 212.777 47.6633 212.777 47.15C212.777 46.4033 213.08 46.03 213.687 46.03C213.92 46.03 214.153 46.1233 214.387 46.31C214.62 46.45 214.83 46.5667 215.017 46.66C215.81 46.0067 216.557 44.9333 217.257 43.44C218.003 41.9467 218.377 39.8233 218.377 37.07C218.377 35.95 218.26 34.9467 218.027 34.06C217.793 33.1733 217.513 32.4267 217.187 31.82C216.907 31.2133 216.603 30.7467 216.277 30.42C215.95 30.0933 215.717 29.93 215.577 29.93C215.11 29.93 214.643 30.3967 214.177 31.33C213.757 32.2633 213.383 33.3367 213.057 34.55C212.73 35.7167 212.45 36.8833 212.217 38.05C212.03 39.17 211.937 39.94 211.937 40.36C211.983 40.64 212.03 40.8967 212.077 41.13C212.123 41.3633 212.17 41.5967 212.217 41.83C212.263 42.0633 212.287 42.2967 212.287 42.53C212.287 43.4167 211.983 44.21 211.377 44.91C210.77 45.61 210.187 45.96 209.627 45.96C209.347 45.96 209.113 45.7733 208.927 45.4C208.787 44.98 208.67 44.4667 208.577 43.86C208.483 43.2533 208.39 42.6233 208.297 41.97C208.25 41.3167 208.18 40.7333 208.087 40.22C207.713 39.38 207.223 38.05 206.617 36.23C206.01 34.41 205.357 32.4733 204.657 30.42C204.003 28.32 203.373 26.29 202.767 24.33C202.207 22.37 201.787 20.8067 201.507 19.64C200.853 17.12 200.363 14.9267 200.037 13.06C199.663 11.1467 199.383 9.49 199.197 8.09C198.963 6.64333 198.823 5.40666 198.777 4.38C198.73 3.35333 198.707 2.49 198.707 1.79C198.707 1.37 198.893 1.04333 199.267 0.809999C199.593 0.576664 199.897 0.459996 200.177 0.459996C200.597 0.459996 200.9 0.553329 201.087 0.739996C201.273 0.879997 201.413 1.20666 201.507 1.72C201.553 2.23333 201.623 2.98 201.717 3.96C201.763 4.94 201.88 6.24666 202.067 7.88C202.16 8.67333 202.323 9.77 202.557 11.17C202.837 12.57 203.187 14.1333 203.607 15.86C204.027 17.5867 204.47 19.4067 204.937 21.32C205.45 23.1867 205.963 24.9833 206.477 26.71C207.037 28.4367 207.573 30.0233 208.087 31.47C208.647 32.9167 209.16 34.06 209.627 34.9C210.047 33.22 210.56 31.7033 211.167 30.35C211.68 29.23 212.31 28.2033 213.057 27.27C213.803 26.29 214.713 25.8 215.787 25.8C216.207 25.8 216.767 25.9867 217.467 26.36C218.167 26.7333 218.843 27.3633 219.497 28.25C220.197 29.1367 220.78 30.3033 221.247 31.75C221.76 33.1967 222.017 34.97 222.017 37.07ZM237.84 48.97C237.84 49.3433 237.7 49.6233 237.42 49.81C237.14 49.9967 236.814 50.09 236.44 50.09C236.02 50.09 235.577 49.6933 235.11 48.9C234.69 48.1067 234.27 47.1033 233.85 45.89C233.43 44.6767 233.034 43.37 232.66 41.97C232.287 40.5233 231.96 39.1933 231.68 37.98C231.4 36.72 231.167 35.67 230.98 34.83C230.84 33.99 230.77 33.5233 230.77 33.43C230.77 33.2433 230.677 32.7533 230.49 31.96C230.35 31.1667 230.14 29.93 229.86 28.25C229.627 26.57 229.347 24.4 229.02 21.74C228.74 19.0333 228.437 15.6967 228.11 11.73C228.11 11.31 228.18 10.7733 228.32 10.12C228.46 9.46666 228.787 9.14 229.3 9.14C229.954 9.14 230.444 9.58333 230.77 10.47C231.144 11.3567 231.424 12.4533 231.61 13.76C231.844 15.0667 232.007 16.4433 232.1 17.89C232.194 19.29 232.31 20.5267 232.45 21.6C232.637 23.0933 232.8 24.4467 232.94 25.66C233.127 26.8733 233.29 28.0867 233.43 29.3C233.617 30.4667 233.827 31.7033 234.06 33.01C234.34 34.3167 234.667 35.7633 235.04 37.35L237.84 48.97ZM262.756 43.65C262.803 43.7433 262.826 43.8833 262.826 44.07C262.826 44.35 262.616 44.77 262.196 45.33C262.056 45.5167 261.753 45.82 261.286 46.24C260.819 46.66 260.189 47.08 259.396 47.5C258.603 47.92 257.623 48.2933 256.456 48.62C255.336 48.9467 254.006 49.11 252.466 49.11C251.393 49.11 250.343 48.8767 249.316 48.41C248.289 47.8967 247.379 47.1733 246.586 46.24C245.793 45.26 245.139 44.07 244.626 42.67C244.113 41.2233 243.856 39.5433 243.856 37.63C243.856 35.81 244.089 34.1067 244.556 32.52C245.023 30.9333 245.606 29.5333 246.306 28.32C247.053 27.1067 247.869 26.15 248.756 25.45C249.643 24.75 250.506 24.4 251.346 24.4C252.093 24.4 252.839 24.5633 253.586 24.89C254.379 25.17 255.079 25.5433 255.686 26.01C256.339 26.4767 256.853 27.0133 257.226 27.62C257.599 28.18 257.786 28.7633 257.786 29.37C257.786 30.07 257.459 30.7933 256.806 31.54C256.199 32.2867 255.453 32.9867 254.566 33.64C253.679 34.2467 252.793 34.76 251.906 35.18C251.019 35.5533 250.319 35.74 249.806 35.74C249.526 35.74 249.269 35.6233 249.036 35.39C248.849 35.11 248.756 34.7833 248.756 34.41C248.756 33.7567 249.036 33.2433 249.596 32.87C250.203 32.4967 250.856 32.17 251.556 31.89C252.256 31.5633 252.886 31.19 253.446 30.77C254.053 30.35 254.356 29.7667 254.356 29.02C254.356 28.9267 254.239 28.6933 254.006 28.32C253.773 27.9467 253.143 27.76 252.116 27.76C251.649 27.76 251.113 28.04 250.506 28.6C249.899 29.1133 249.316 29.8367 248.756 30.77C248.196 31.6567 247.729 32.73 247.356 33.99C246.983 35.2033 246.796 36.5333 246.796 37.98C246.796 39.1933 247.006 40.29 247.426 41.27C247.893 42.25 248.476 43.09 249.176 43.79C249.876 44.4433 250.693 44.9567 251.626 45.33C252.559 45.7033 253.516 45.89 254.496 45.89C255.196 45.89 255.943 45.75 256.736 45.47C257.576 45.1433 258.346 44.8167 259.046 44.49C259.793 44.1167 260.423 43.79 260.936 43.51C261.496 43.1833 261.846 43.02 261.986 43.02C262.126 43.02 262.266 43.09 262.406 43.23C262.593 43.37 262.709 43.51 262.756 43.65ZM318.665 54.08C318.711 54.2667 318.735 54.43 318.735 54.57C318.735 54.7567 318.735 54.8967 318.735 54.99C318.735 55.4567 318.618 55.7833 318.385 55.97C318.198 56.1567 317.801 56.25 317.195 56.25C316.635 56.25 316.261 56.1567 316.075 55.97C315.795 55.69 315.421 54.9667 314.955 53.8C314.488 52.6333 313.998 51.2567 313.485 49.67C312.971 48.0833 312.458 46.38 311.945 44.56C311.478 42.74 311.058 41.0133 310.685 39.38C310.171 39.6133 309.471 39.87 308.585 40.15C307.698 40.3833 306.788 40.6167 305.855 40.85C304.781 41.0833 303.661 41.34 302.495 41.62C302.075 43.6267 301.748 45.3533 301.515 46.8C301.328 48.2 301.141 49.3667 300.955 50.3C300.815 51.1867 300.605 51.84 300.325 52.26C300.091 52.7267 299.695 52.96 299.135 52.96C298.761 52.96 298.435 52.75 298.155 52.33C297.875 51.91 297.735 51.28 297.735 50.44C297.735 50.02 297.851 49.04 298.085 47.5C298.318 45.96 298.575 44.2567 298.855 42.39C299.135 40.4767 299.415 38.5867 299.695 36.72C299.975 34.8533 300.161 33.3833 300.255 32.31C300.301 31.75 300.441 30.84 300.675 29.58C300.955 28.32 301.235 27.0367 301.515 25.73C301.795 24.3767 302.075 23.1633 302.355 22.09C302.635 21.0167 302.821 20.41 302.915 20.27C303.661 18.5433 304.128 16.77 304.315 14.95C304.548 13.13 304.711 11.4733 304.805 9.98C304.945 8.44 305.155 7.20333 305.435 6.27C305.715 5.29 306.298 4.8 307.185 4.8C307.418 4.8 307.651 4.98667 307.885 5.36C308.165 5.73333 308.421 6.17666 308.655 6.69C308.888 7.20333 309.075 7.71666 309.215 8.23C309.355 8.69667 309.448 9.07 309.495 9.35C309.541 9.63 309.588 10.19 309.635 11.03C309.728 11.87 309.798 12.8033 309.845 13.83C309.938 14.81 310.008 15.79 310.055 16.77C310.148 17.7033 310.218 18.4267 310.265 18.94C310.405 20.48 310.615 22.2067 310.895 24.12C311.221 26.0333 311.548 27.83 311.875 29.51C312.201 31.19 312.505 32.6133 312.785 33.78C313.065 34.9 313.275 35.46 313.415 35.46C313.601 35.46 313.835 35.4133 314.115 35.32C314.441 35.2267 314.745 35.18 315.025 35.18C315.398 35.18 315.585 35.3667 315.585 35.74C315.585 36.1133 315.491 36.4167 315.305 36.65C315.118 36.8833 314.908 37.0933 314.675 37.28C314.488 37.4667 314.301 37.63 314.115 37.77C313.975 37.91 313.905 38.0733 313.905 38.26C313.905 38.6333 314.115 39.59 314.535 41.13L315.655 45.26C315.748 45.6333 315.958 46.2633 316.285 47.15C316.611 48.0367 316.938 48.97 317.265 49.95C317.638 50.8833 317.965 51.7467 318.245 52.54C318.525 53.38 318.665 53.8933 318.665 54.08ZM303.125 38.05C303.405 38.05 303.918 37.98 304.665 37.84C305.411 37.6533 306.181 37.4433 306.975 37.21C307.768 36.9767 308.468 36.7433 309.075 36.51C309.681 36.2767 309.985 36.09 309.985 35.95C309.985 35.81 309.891 35.46 309.705 34.9C309.565 34.2933 309.378 33.5467 309.145 32.66C308.958 31.7267 308.748 30.6767 308.515 29.51C308.281 28.3433 308.071 27.1067 307.885 25.8C307.791 24.96 307.675 23.8167 307.535 22.37C307.395 20.9233 307.255 19.5 307.115 18.1C306.975 16.6533 306.858 15.4167 306.765 14.39C306.671 13.3633 306.625 12.85 306.625 12.85C306.625 12.85 306.555 13.2 306.415 13.9C306.275 14.5533 306.111 15.3 305.925 16.14C305.785 16.9333 305.645 17.7033 305.505 18.45C305.411 19.15 305.365 19.5467 305.365 19.64V21.6C305.365 21.6933 305.295 22.1133 305.155 22.86C305.061 23.56 304.921 24.47 304.735 25.59C304.548 26.6633 304.338 27.8533 304.105 29.16C303.918 30.42 303.731 31.6333 303.545 32.8C303.358 33.9667 303.195 35.0167 303.055 35.95C302.961 36.8367 302.915 37.4433 302.915 37.77C302.915 37.9567 302.985 38.05 303.125 38.05ZM350.602 30C350.602 31.5867 350.322 33.1033 349.762 34.55C349.202 35.9967 348.409 37.3967 347.382 38.75C346.356 40.1033 345.142 41.4333 343.742 42.74C342.389 44 340.896 45.2367 339.262 46.45C337.536 47.7567 335.529 49.0167 333.242 50.23C330.956 51.4433 328.646 52.5167 326.312 53.45C324.026 54.43 321.856 55.2 319.802 55.76C317.749 56.32 316.092 56.6 314.832 56.6C313.992 56.6 313.386 56.4833 313.012 56.25C312.592 56.0633 312.382 55.5967 312.382 54.85C312.382 54.3367 312.569 53.73 312.942 53.03C313.316 52.33 313.689 51.98 314.062 51.98C314.436 51.98 314.716 52.0967 314.902 52.33C315.042 52.5633 315.112 52.82 315.112 53.1C315.112 53.24 315.112 53.3567 315.112 53.45C315.066 53.5433 315.042 53.6133 315.042 53.66V53.8C316.816 53.6133 319.196 53.0533 322.182 52.12C325.122 51.2333 328.646 49.67 332.752 47.43C334.526 46.45 336.276 45.3067 338.002 44C339.729 42.6467 341.269 41.2233 342.622 39.73C344.022 38.19 345.142 36.6033 345.982 34.97C346.822 33.29 347.242 31.6567 347.242 30.07C347.242 28.95 346.659 27.8067 345.492 26.64C344.372 25.4267 342.926 24.3067 341.152 23.28C339.426 22.2067 337.536 21.2967 335.482 20.55C333.429 19.7567 331.516 19.22 329.742 18.94C329.789 19.1733 329.859 19.7567 329.952 20.69C330.046 21.5767 330.186 22.6267 330.372 23.84C330.559 25.0533 330.769 26.36 331.002 27.76C331.282 29.1133 331.586 30.3733 331.912 31.54C332.286 32.8467 332.519 33.8267 332.612 34.48C332.752 35.0867 332.846 35.6 332.892 36.02C332.939 36.4867 333.009 37.0933 333.102 37.84C333.242 38.54 333.336 39.2867 333.382 40.08C333.476 40.8267 333.546 41.55 333.592 42.25C333.686 42.9033 333.732 43.4167 333.732 43.79C333.732 44.21 333.639 44.6533 333.452 45.12C333.312 45.5867 333.126 45.82 332.892 45.82C332.332 45.82 331.936 45.6333 331.702 45.26C331.516 44.84 331.329 44.1633 331.142 43.23C331.002 42.25 330.816 40.99 330.582 39.45C330.349 37.91 329.906 36.02 329.252 33.78C328.319 30.6533 327.666 27.7133 327.292 24.96C326.919 22.16 326.686 19.9433 326.592 18.31C326.592 18.31 326.476 18.31 326.242 18.31C326.056 18.2633 325.776 18.24 325.402 18.24C325.076 18.24 324.679 18.24 324.212 18.24C323.792 18.1933 323.396 18.17 323.022 18.17C322.229 18.17 321.506 18.3333 320.852 18.66C320.199 18.94 319.662 19.2667 319.242 19.64C318.776 20.0133 318.402 20.3633 318.122 20.69C317.796 20.97 317.586 21.11 317.492 21.11C317.166 21.11 316.722 21.04 316.162 20.9C315.556 20.7133 315.252 20.3867 315.252 19.92C315.252 19.3133 315.556 18.7067 316.162 18.1C316.722 17.4467 317.422 16.8867 318.262 16.42C319.102 15.9067 320.012 15.51 320.992 15.23C321.972 14.9033 322.882 14.74 323.722 14.74C325.122 14.74 326.756 14.9267 328.622 15.3C330.489 15.6733 332.402 16.1867 334.362 16.84C336.369 17.4933 338.329 18.2867 340.242 19.22C342.202 20.1533 343.952 21.18 345.492 22.3C347.032 23.42 348.269 24.6333 349.202 25.94C350.136 27.2467 350.602 28.6 350.602 30ZM378.479 54.08C378.526 54.2667 378.549 54.43 378.549 54.57C378.549 54.7567 378.549 54.8967 378.549 54.99C378.549 55.4567 378.433 55.7833 378.199 55.97C378.013 56.1567 377.616 56.25 377.009 56.25C376.449 56.25 376.076 56.1567 375.889 55.97C375.609 55.69 375.236 54.9667 374.769 53.8C374.303 52.6333 373.813 51.2567 373.299 49.67C372.786 48.0833 372.273 46.38 371.759 44.56C371.293 42.74 370.873 41.0133 370.499 39.38C369.986 39.6133 369.286 39.87 368.399 40.15C367.513 40.3833 366.603 40.6167 365.669 40.85C364.596 41.0833 363.476 41.34 362.309 41.62C361.889 43.6267 361.563 45.3533 361.329 46.8C361.143 48.2 360.956 49.3667 360.769 50.3C360.629 51.1867 360.419 51.84 360.139 52.26C359.906 52.7267 359.509 52.96 358.949 52.96C358.576 52.96 358.249 52.75 357.969 52.33C357.689 51.91 357.549 51.28 357.549 50.44C357.549 50.02 357.666 49.04 357.899 47.5C358.133 45.96 358.389 44.2567 358.669 42.39C358.949 40.4767 359.229 38.5867 359.509 36.72C359.789 34.8533 359.976 33.3833 360.069 32.31C360.116 31.75 360.256 30.84 360.489 29.58C360.769 28.32 361.049 27.0367 361.329 25.73C361.609 24.3767 361.889 23.1633 362.169 22.09C362.449 21.0167 362.636 20.41 362.729 20.27C363.476 18.5433 363.943 16.77 364.129 14.95C364.363 13.13 364.526 11.4733 364.619 9.98C364.759 8.44 364.969 7.20333 365.249 6.27C365.529 5.29 366.113 4.8 366.999 4.8C367.233 4.8 367.466 4.98667 367.699 5.36C367.979 5.73333 368.236 6.17666 368.469 6.69C368.703 7.20333 368.889 7.71666 369.029 8.23C369.169 8.69667 369.263 9.07 369.309 9.35C369.356 9.63 369.403 10.19 369.449 11.03C369.543 11.87 369.613 12.8033 369.659 13.83C369.753 14.81 369.823 15.79 369.869 16.77C369.963 17.7033 370.033 18.4267 370.079 18.94C370.219 20.48 370.429 22.2067 370.709 24.12C371.036 26.0333 371.363 27.83 371.689 29.51C372.016 31.19 372.319 32.6133 372.599 33.78C372.879 34.9 373.089 35.46 373.229 35.46C373.416 35.46 373.649 35.4133 373.929 35.32C374.256 35.2267 374.559 35.18 374.839 35.18C375.213 35.18 375.399 35.3667 375.399 35.74C375.399 36.1133 375.306 36.4167 375.119 36.65C374.933 36.8833 374.723 37.0933 374.489 37.28C374.303 37.4667 374.116 37.63 373.929 37.77C373.789 37.91 373.719 38.0733 373.719 38.26C373.719 38.6333 373.929 39.59 374.349 41.13L375.469 45.26C375.563 45.6333 375.773 46.2633 376.099 47.15C376.426 48.0367 376.753 48.97 377.079 49.95C377.453 50.8833 377.779 51.7467 378.059 52.54C378.339 53.38 378.479 53.8933 378.479 54.08ZM362.939 38.05C363.219 38.05 363.733 37.98 364.479 37.84C365.226 37.6533 365.996 37.4433 366.789 37.21C367.583 36.9767 368.283 36.7433 368.889 36.51C369.496 36.2767 369.799 36.09 369.799 35.95C369.799 35.81 369.706 35.46 369.519 34.9C369.379 34.2933 369.193 33.5467 368.959 32.66C368.773 31.7267 368.563 30.6767 368.329 29.51C368.096 28.3433 367.886 27.1067 367.699 25.8C367.606 24.96 367.489 23.8167 367.349 22.37C367.209 20.9233 367.069 19.5 366.929 18.1C366.789 16.6533 366.673 15.4167 366.579 14.39C366.486 13.3633 366.439 12.85 366.439 12.85C366.439 12.85 366.369 13.2 366.229 13.9C366.089 14.5533 365.926 15.3 365.739 16.14C365.599 16.9333 365.459 17.7033 365.319 18.45C365.226 19.15 365.179 19.5467 365.179 19.64V21.6C365.179 21.6933 365.109 22.1133 364.969 22.86C364.876 23.56 364.736 24.47 364.549 25.59C364.363 26.6633 364.153 27.8533 363.919 29.16C363.733 30.42 363.546 31.6333 363.359 32.8C363.173 33.9667 363.009 35.0167 362.869 35.95C362.776 36.8367 362.729 37.4433 362.729 37.77C362.729 37.9567 362.799 38.05 362.939 38.05Z" fill="#160A0A"/>
</svg>
